<?xml version="1.0" encoding="UTF-8"?>
<!DOCTYPE svg PUBLIC "-//W3C//DTD SVG 1.1//EN" "http://www.w3.org/Graphics/SVG/1.1/DTD/svg11.dtd">
<!-- Creator: CorelDRAW -->
<?xml-stylesheet href="w000.css" type="text/css"?>
<svg xmlns="http://www.w3.org/2000/svg" xml:space="preserve" width="60.2373mm" height="139.884mm" style="shape-rendering:geometricPrecision; text-rendering:geometricPrecision; image-rendering:optimizeQuality; fill-rule:evenodd; clip-rule:evenodd"
viewBox="0 0 57.6732 133.929"
 xmlns:xlink="http://www.w3.org/1999/xlink">
 <defs>
 <linearGradient id="id0" gradientUnits="userSpaceOnUse" x1="-30.3484" y1="85.0061" x2="54.097" y2="0.560673">
  <stop offset="0" style="stop-color:#FFAF22"/>
  <stop offset="1" style="stop-color:#F09900"/>
 </linearGradient>
 <radialGradient id="id1" gradientUnits="userSpaceOnUse" cx="12.0232" cy="42.7856" r="82.435" fx="12.0232" fy="42.7856">
  <stop offset="0" style="stop-color:#D6B849"/>
  <stop offset="0.541176" style="stop-color:#D6B849"/>
  <stop offset="0.670588" style="stop-color:#FFCE47"/>
  <stop offset="1" style="stop-color:#FFDB73"/>
  <stop offset="1" style="stop-color:#FFDB73"/>
 </radialGradient>
 </defs>
<symbol id="sun" viewBox="-70.4118 -39.6494 164.87 164.87">
 <polygon class="fil0" points="63.5752,56.5784 94.4582,42.7856 63.5752,28.9526 83.3596,1.48766 49.7422,5.02633 53.1602,-28.6514 25.8159,-8.76645 12.0232,-39.6494 -1.80984,-8.76645 -29.2748,-28.5509 -25.7361,5.06655 -59.4138,1.64851 -39.5289,28.9928 -70.4118,42.7856 -39.5289,56.5181 -59.3133,84.0835 -25.6959,80.5448 -29.1139,114.223 -1.76962,94.3376 12.0232,125.221 25.7556,94.3376 53.2206,114.122 49.7824,80.5046 83.4601,83.9026 "/>
 <path class="fil1" d="M-31.6473 67.9182c8.97948,15.5387 25.5729,25.118 43.5226,25.118 27.756,0 50.2652,-22.5092 50.2652,-50.2652 0,-27.7561 -22.5092,-50.2652 -50.2652,-50.2652 -8.81834,0 -17.4894,2.3258 -25.1234,6.73191 -15.5502,8.97172 -25.1418,25.5775 -25.1418,43.5333 0,8.82447 2.33192,17.5078 6.74416,25.1479l-0.00153189 -0.000670203z"/>
 <path class="fil2" d="M-24.6906 63.897c7.54343,13.0575 21.4819,21.1092 36.5649,21.1092 23.3149,0 42.2227,-18.9078 42.2227,-42.2228 0,-23.315 -18.9078,-42.2228 -42.2227,-42.2228 -7.40737,0 -14.6911,1.94847 -21.1036,5.64962 -13.0674,7.53634 -21.1192,21.4852 -21.1192,36.5732 0,7.40737 1.95881,14.7014 5.65996,21.114l-0.00201061 -0.000382973z"/>
</symbol>
<symbol id="s01d" viewBox="-52.3164 -21.5539 164.87 164.87">
 <use x="-52.3164" y="-21.5539" width="164.87" height="164.87" xlink:href="#sun"/>
</symbol>
 <g id="Слой_x0020_1">
  <metadata id="CorelCorpID_0Corel-Layer"/>
  <polygon class="fil3" points="28.9656,0 11.7152,92.0631 0.000382973,91.8495 28.9656,133.929 57.6733,92.0631 45.9585,91.8495 "/>
 </g>
</svg>
