<?xml version="1.0" encoding="UTF-8"?>
<!DOCTYPE svg PUBLIC "-//W3C//DTD SVG 1.1//EN" "http://www.w3.org/Graphics/SVG/1.1/DTD/svg11.dtd">
<!-- Creator: CorelDRAW -->
<?xml-stylesheet href="w030.css" type="text/css"?>
<svg xmlns="http://www.w3.org/2000/svg" xml:space="preserve" width="74.1665mm" height="121.143mm" style="shape-rendering:geometricPrecision; text-rendering:geometricPrecision; image-rendering:optimizeQuality; fill-rule:evenodd; clip-rule:evenodd"
viewBox="0 0 67.7851 110.72"
 xmlns:xlink="http://www.w3.org/1999/xlink">
 <defs>
 <linearGradient id="id0" gradientUnits="userSpaceOnUse" x1="-20.6382" y1="70.7574" x2="59.9728" y2="-9.85358">
  <stop offset="0" style="stop-color:#FFAF22"/>
  <stop offset="1" style="stop-color:#F09900"/>
 </linearGradient>
 <radialGradient id="id1" gradientUnits="userSpaceOnUse" cx="19.8094" cy="30.454" r="78.6919" fx="19.8094" fy="30.454">
  <stop offset="0" style="stop-color:#D6B849"/>
  <stop offset="0.541176" style="stop-color:#D6B849"/>
  <stop offset="0.670588" style="stop-color:#FFCE47"/>
  <stop offset="1" style="stop-color:#FFDB73"/>
  <stop offset="1" style="stop-color:#FFDB73"/>
 </radialGradient>
 </defs>
<symbol id="sun" viewBox="-58.8825 -48.2378 157.384 157.384">
 <polygon class="fil0" points="69.0206,43.6205 98.5013,30.454 69.0206,17.2491 87.9067,-8.96868 55.8158,-5.59069 59.0786,-37.7392 32.9759,-18.7572 19.8094,-48.2378 6.60454,-18.7572 -19.6133,-37.6432 -16.2353,-5.5523 -48.3838,-8.81514 -29.4018,17.2875 -58.8825,30.454 -29.4018,43.5629 -48.2878,69.8767 -16.1969,66.4987 -19.4597,98.6473 6.64293,79.6652 19.8094,109.146 32.9183,79.6652 59.1362,98.5513 55.8541,66.4604 88.0027,69.704 "/>
 <path class="fil1" d="M-21.8781 54.4455c8.57175,14.8331 24.4118,23.9774 41.5464,23.9774 26.4957,0 47.9828,-21.4871 47.9828,-47.9829 0,-26.4958 -21.4871,-47.9829 -47.9828,-47.9829 -8.41793,0 -16.6953,2.22019 -23.9827,6.42623 -14.8442,8.56434 -24.0002,24.4161 -24.0002,41.5566 0,8.42378 2.22604,16.7128 6.43793,24.006l-0.00146233 -0.000639771z"/>
 <path class="fil2" d="M-15.2373 50.6068c7.2009,12.4646 20.5065,20.1507 34.9046,20.1507 22.2563,0 40.3055,-18.0492 40.3055,-40.3056 0,-22.2564 -18.0492,-40.3056 -40.3055,-40.3056 -7.07103,0 -14.0241,1.86 -20.1454,5.39309 -12.4741,7.19414 -20.1602,20.5096 -20.1602,34.9125 0,7.07103 1.86987,14.0338 5.40296,20.1553l-0.00191931 -0.000365584z"/>
</symbol>
<symbol id="s01d" viewBox="-41.6086 -30.964 157.384 157.384">
 <use x="-41.6086" y="-30.964" width="157.384" height="157.384" xlink:href="#sun"/>
</symbol>
 <g id="Слой_x0020_1">
  <metadata id="CorelCorpID_0Corel-Layer"/>
  <polygon class="fil3" points="67.7851,0 9.58277,67.8752 9.13959e-005,62.1071 3.86102,110.72 47.5764,89.8107 37.9937,84.0427 "/>
 </g>
</svg>
