<?xml version="1.0" encoding="UTF-8"?>
<!DOCTYPE svg PUBLIC "-//W3C//DTD SVG 1.1//EN" "http://www.w3.org/Graphics/SVG/1.1/DTD/svg11.dtd">
<!-- Creator: CorelDRAW -->
<?xml-stylesheet href="w040.css" type="text/css"?>
<svg xmlns="http://www.w3.org/2000/svg" xml:space="preserve" width="89.9155mm" height="107.157mm" style="shape-rendering:geometricPrecision; text-rendering:geometricPrecision; image-rendering:optimizeQuality; fill-rule:evenodd; clip-rule:evenodd"
viewBox="0 0 87.1797 103.897"
 xmlns:xlink="http://www.w3.org/1999/xlink">
 <defs>
 <linearGradient id="id0" gradientUnits="userSpaceOnUse" x1="-16.276" y1="67.9272" x2="69.2401" y2="-17.5889">
  <stop offset="0" style="stop-color:#FFAF22"/>
  <stop offset="1" style="stop-color:#F09900"/>
 </linearGradient>
 <radialGradient id="id1" gradientUnits="userSpaceOnUse" cx="26.6328" cy="25.1714" r="83.4802" fx="26.6328" fy="25.1714">
  <stop offset="0" style="stop-color:#D6B849"/>
  <stop offset="0.541176" style="stop-color:#D6B849"/>
  <stop offset="0.670588" style="stop-color:#FFCE47"/>
  <stop offset="1" style="stop-color:#FFDB73"/>
  <stop offset="1" style="stop-color:#FFDB73"/>
 </radialGradient>
 </defs>
<symbol id="sun" viewBox="-56.8474 -58.3089 166.96 166.96">
 <polygon class="fil0" points="78.8385,39.1391 110.113,25.1714 78.8385,11.163 98.8738,-16.6502 64.8301,-13.0666 68.2915,-47.1714 40.6005,-27.0343 26.6328,-58.3089 12.6244,-27.0343 -15.1888,-47.0696 -11.6052,-13.0259 -45.7099,-16.4873 -25.5729,11.2037 -56.8474,25.1714 -25.5729,39.078 -45.6081,66.9929 -11.5645,63.4094 -15.0259,97.5141 12.6651,77.3771 26.6328,108.652 40.5394,77.3771 68.3526,97.4123 64.8708,63.3687 98.9756,66.8097 "/>
 <path class="fil1" d="M-17.5914 50.6227c9.09334,15.7357 25.8972,25.4365 44.0745,25.4365 28.1079,0 50.9025,-22.7946 50.9025,-50.9026 0,-28.108 -22.7946,-50.9026 -50.9025,-50.9026 -8.93016,0 -17.7112,2.35529 -25.442,6.81726 -15.7474,9.08548 -25.4606,25.9019 -25.4606,44.0853 0,8.93636 2.36149,17.7298 6.82967,25.4668l-0.00155132 -0.000678701z"/>
 <path class="fil2" d="M-10.5464 46.5505c7.63907,13.223 21.7543,21.3769 37.0285,21.3769 23.6106,0 42.7581,-19.1475 42.7581,-42.7582 0,-23.6107 -19.1475,-42.7582 -42.7581,-42.7582 -7.5013,0 -14.8774,1.97318 -21.3712,5.72126 -13.2331,7.6319 -21.3869,21.7576 -21.3869,37.0369 0,7.5013 1.98365,14.8878 5.73173,21.3817l-0.0020361 -0.000387829z"/>
</symbol>
<symbol id="s01d" viewBox="-38.5225 -39.9839 166.96 166.96">
 <use x="-38.5225" y="-39.9839" width="166.96" height="166.96" xlink:href="#sun"/>
</symbol>
 <g id="Слой_x0020_1">
  <metadata id="CorelCorpID_0Corel-Layer"/>
  <polygon class="fil3" points="87.1796,-9.69573e-005 13.8701,60.1896 4.92136,52.3984 -9.69573e-005,103.897 49.5225,90.1055 40.5737,82.3141 "/>
 </g>
</svg>
