<?xml version="1.0" encoding="UTF-8"?>
<!DOCTYPE svg PUBLIC "-//W3C//DTD SVG 1.1//EN" "http://www.w3.org/Graphics/SVG/1.1/DTD/svg11.dtd">
<!-- Creator: CorelDRAW -->
<?xml-stylesheet href="w070.css" type="text/css"?>
<svg xmlns="http://www.w3.org/2000/svg" xml:space="preserve" width="131.448mm" height="61.0631mm" style="shape-rendering:geometricPrecision; text-rendering:geometricPrecision; image-rendering:optimizeQuality; fill-rule:evenodd; clip-rule:evenodd"
viewBox="0 0 129.372 60.0987"
 xmlns:xlink="http://www.w3.org/1999/xlink">
 <defs>
 <linearGradient id="id0" gradientUnits="userSpaceOnUse" x1="3.56588" y1="39.7331" x2="90.3727" y2="-47.0737">
  <stop offset="0" style="stop-color:#FFAF22"/>
  <stop offset="1" style="stop-color:#F09900"/>
 </linearGradient>
 <radialGradient id="id1" gradientUnits="userSpaceOnUse" cx="47.1223" cy="-3.66804" r="84.7402" fx="47.1223" fy="-3.66804">
  <stop offset="0" style="stop-color:#D6B849"/>
  <stop offset="0.541176" style="stop-color:#D6B849"/>
  <stop offset="0.670588" style="stop-color:#FFCE47"/>
  <stop offset="1" style="stop-color:#FFDB73"/>
  <stop offset="1" style="stop-color:#FFDB73"/>
 </radialGradient>
 </defs>
<symbol id="sun" viewBox="-37.6179 -88.4082 169.48 169.48">
 <polygon class="fil0" points="100.116,10.5104 131.863,-3.66804 100.116,-17.8879 120.454,-46.1208 85.8962,-42.4832 89.4098,-77.1027 61.3008,-56.6617 47.1223,-88.4082 32.9025,-56.6617 4.66957,-76.9993 8.3072,-42.4418 -26.3123,-45.9555 -5.87129,-17.8465 -37.6179,-3.66804 -5.87129,10.4484 -26.2089,38.7847 8.34853,35.1471 4.83492,69.7666 32.9439,49.3256 47.1223,81.0722 61.2388,49.3256 89.4718,69.6632 85.9375,35.1058 120.557,38.5987 "/>
 <path class="fil1" d="M2.2307 22.1674c9.23058,15.9732 26.2881,25.8204 44.7397,25.8204 28.5322,0 51.6708,-23.1386 51.6708,-51.6709 0,-28.5323 -23.1386,-51.6709 -51.6708,-51.6709 -9.06494,0 -17.9785,2.39084 -25.826,6.92015 -15.9851,9.22261 -25.8449,26.2928 -25.8449,44.7507 0,9.07124 2.39713,17.9974 6.93275,25.8512l-0.00157473 -0.000688945z"/>
 <path class="fil2" d="M9.38195 18.0337c7.75437,13.4226 22.0826,21.6995 37.5873,21.6995 23.9669,0 43.4034,-19.4365 43.4034,-43.4035 0,-23.967 -19.4365,-43.4035 -43.4034,-43.4035 -7.61451,0 -15.102,2.00296 -21.6938,5.80761 -13.4328,7.74708 -21.7097,22.086 -21.7097,37.5959 0,7.61451 2.01359,15.1125 5.81824,21.7044l-0.00206683 -0.000393683z"/>
</symbol>
<symbol id="s01d" viewBox="-19.0164 -69.8067 169.48 169.48">
 <use x="-19.0164" y="-69.8067" width="169.48" height="169.48" xlink:href="#sun"/>
</symbol>
 <g id="Слой_x0020_1">
  <metadata id="CorelCorpID_0Corel-Layer"/>
  <polygon class="fil3" points="129.372,-9.84207e-005 34.3766,15.7045 30.4642,4.31329 -0,47.0874 50.5347,60.0987 46.6224,48.7074 "/>
 </g>
</svg>
