<?xml version="1.0" encoding="UTF-8"?>
<!DOCTYPE svg PUBLIC "-//W3C//DTD SVG 1.1//EN" "http://www.w3.org/Graphics/SVG/1.1/DTD/svg11.dtd">
<!-- Creator: CorelDRAW -->
<?xml-stylesheet href="w100.css" type="text/css"?>
<svg xmlns="http://www.w3.org/2000/svg" xml:space="preserve" width="137.759mm" height="59.2833mm" style="shape-rendering:geometricPrecision; text-rendering:geometricPrecision; image-rendering:optimizeQuality; fill-rule:evenodd; clip-rule:evenodd"
viewBox="0 0 139.447 60.0098"
 xmlns:xlink="http://www.w3.org/1999/xlink">
 <defs>
 <linearGradient id="id0" gradientUnits="userSpaceOnUse" x1="4.94992" y1="51.2108" x2="94.2306" y2="-38.0699">
  <stop offset="0" style="stop-color:#FFAF22"/>
  <stop offset="1" style="stop-color:#F09900"/>
 </linearGradient>
 <radialGradient id="id1" gradientUnits="userSpaceOnUse" cx="49.7476" cy="6.57277" r="87.1551" fx="49.7476" fy="6.57277">
  <stop offset="0" style="stop-color:#D6B849"/>
  <stop offset="0.541176" style="stop-color:#D6B849"/>
  <stop offset="0.670588" style="stop-color:#FFCE47"/>
  <stop offset="1" style="stop-color:#FFDB73"/>
  <stop offset="1" style="stop-color:#FFDB73"/>
 </radialGradient>
 </defs>
<symbol id="sun" viewBox="-37.4075 -80.5823 174.31 174.31">
 <polygon class="fil0" points="104.251,21.1553 136.903,6.57277 104.251,-8.05228 125.169,-37.0898 89.6264,-33.3485 93.2402,-68.9546 64.3302,-47.9311 49.7476,-80.5823 35.1226,-47.9311 6.08507,-68.8483 9.82636,-33.306 -25.7797,-36.9197 -4.75618,-8.00977 -37.4075,6.57277 -4.75618,21.0915 -25.6734,50.2353 9.86887,46.4941 6.25512,82.1001 35.1651,61.0766 49.7476,93.7279 64.2664,61.0766 93.3039,81.9938 89.6689,46.4515 125.275,50.044 "/>
 <path class="fil1" d="M3.5767 33.1444c9.49363,16.4284 27.0372,26.5562 46.0147,26.5562 29.3453,0 53.1433,-23.798 53.1433,-53.1434 0,-29.3454 -23.798,-53.1434 -53.1433,-53.1434 -9.32327,0 -18.4908,2.45897 -26.562,7.11736 -16.4406,9.48543 -26.5814,27.0421 -26.5814,46.026 0,9.32975 2.46545,18.5103 7.13032,26.5879l-0.00161961 -0.000708578z"/>
 <path class="fil2" d="M10.9317 28.893c7.97535,13.8051 22.712,22.3179 38.6585,22.3179 24.6499,0 44.6403,-19.9904 44.6403,-44.6404 0,-24.65 -19.9904,-44.6404 -44.6403,-44.6404 -7.83151,0 -15.5323,2.06004 -22.312,5.97311 -13.8157,7.96786 -22.3284,22.7154 -22.3284,38.6673 0,7.83151 2.07097,15.5432 5.98404,22.3229l-0.00212573 -0.000404902z"/>
</symbol>
<symbol id="s01d" viewBox="-18.2758 -61.4507 174.31 174.31">
 <use x="-18.2758" y="-61.4507" width="174.31" height="174.31" xlink:href="#sun"/>
</symbol>
 <g id="Слой_x0020_1">
  <metadata id="CorelCorpID_0Corel-Layer"/>
  <polygon class="fil3" points="139.447,47.0213 46.7581,12.1584 49.1312,0.000202451 -0,22.4331 38.3205,60.0098 40.6936,47.8516 "/>
 </g>
</svg>
