<?xml version="1.0" encoding="UTF-8"?>
<!DOCTYPE svg PUBLIC "-//W3C//DTD SVG 1.1//EN" "http://www.w3.org/Graphics/SVG/1.1/DTD/svg11.dtd">
<!-- Creator: CorelDRAW -->
<?xml-stylesheet href="w150.css" type="text/css"?>
<svg xmlns="http://www.w3.org/2000/svg" xml:space="preserve" width="74.045mm" height="121.143mm" style="shape-rendering:geometricPrecision; text-rendering:geometricPrecision; image-rendering:optimizeQuality; fill-rule:evenodd; clip-rule:evenodd"
viewBox="0 0 67.5532 110.522"
 xmlns:xlink="http://www.w3.org/1999/xlink">
 <defs>
 <linearGradient id="id0" gradientUnits="userSpaceOnUse" x1="-20.5959" y1="70.3039" x2="59.8712" y2="-10.1631">
  <stop offset="0" style="stop-color:#FFAF22"/>
  <stop offset="1" style="stop-color:#F09900"/>
 </linearGradient>
 <radialGradient id="id1" gradientUnits="userSpaceOnUse" cx="19.7795" cy="30.0725" r="78.5513" fx="19.7795" fy="30.0725">
  <stop offset="0" style="stop-color:#D6B849"/>
  <stop offset="0.541176" style="stop-color:#D6B849"/>
  <stop offset="0.670588" style="stop-color:#FFCE47"/>
  <stop offset="1" style="stop-color:#FFDB73"/>
  <stop offset="1" style="stop-color:#FFDB73"/>
 </radialGradient>
 </defs>
<symbol id="sun" viewBox="-58.7718 -48.4789 157.103 157.103">
 <polygon class="fil0" points="68.9029,43.2155 98.3309,30.0725 68.9029,16.8912 87.7552,-9.27982 55.7216,-5.90786 58.9786,-37.999 32.9225,-19.0508 19.7795,-48.4789 6.59822,-19.0508 -19.5728,-37.9032 -16.2008,-5.86955 -48.2919,-9.12655 -29.3438,16.9295 -58.7718,30.0725 -29.3438,43.158 -48.1961,69.4248 -16.1625,66.0528 -19.4195,98.1439 6.63654,79.1958 19.7795,108.624 32.865,79.1958 59.036,98.0481 55.7599,66.0145 87.851,69.2524 "/>
 <path class="fil1" d="M-21.8335 54.0211c8.55644,14.8066 24.3682,23.9346 41.4722,23.9346 26.4484,0 47.8971,-21.4487 47.8971,-47.8972 0,-26.4484 -21.4487,-47.8972 -47.8971,-47.8972 -8.4029,0 -16.6655,2.21622 -23.9398,6.41475 -14.8176,8.54905 -23.9573,24.3725 -23.9573,41.4824 0,8.40873 2.22206,16.683 6.42643,23.9632l-0.00145972 -0.000638629z"/>
 <path class="fil2" d="M-15.2046 50.1893c7.18804,12.4423 20.4699,20.1147 34.8422,20.1147 22.2165,0 40.2335,-18.017 40.2335,-40.2336 0,-22.2166 -18.017,-40.2336 -40.2335,-40.2336 -7.0584,0 -13.999,1.85668 -20.1094,5.38346 -12.4518,7.18129 -20.1242,20.473 -20.1242,34.8502 0,7.0584 1.86653,14.0088 5.39331,20.1193l-0.00191589 -0.000364931z"/>
</symbol>
<symbol id="s01d" viewBox="-41.5288 -31.2359 157.103 157.103">
 <use x="-41.5288" y="-31.2359" width="157.103" height="157.103" xlink:href="#sun"/>
</symbol>
 <g id="Слой_x0020_1">
  <metadata id="CorelCorpID_0Corel-Layer"/>
  <polygon class="fil3" points="67.5532,110.522 37.9259,26.3302 47.695,20.925 3.74346,0 9.12327e-005,48.2267 9.7692,42.8215 "/>
 </g>
</svg>
