<?xml version="1.0" encoding="UTF-8"?>
<!DOCTYPE svg PUBLIC "-//W3C//DTD SVG 1.1//EN" "http://www.w3.org/Graphics/SVG/1.1/DTD/svg11.dtd">
<!-- Creator: CorelDRAW -->
<?xml-stylesheet href="w160.css" type="text/css"?>
<svg xmlns="http://www.w3.org/2000/svg" xml:space="preserve" width="61.0631mm" height="131.448mm" style="shape-rendering:geometricPrecision; text-rendering:geometricPrecision; image-rendering:optimizeQuality; fill-rule:evenodd; clip-rule:evenodd"
viewBox="0 0 48.2006 103.759"
 xmlns:xlink="http://www.w3.org/1999/xlink">
 <defs>
 <linearGradient id="id0" gradientUnits="userSpaceOnUse" x1="-19.3206" y1="64.6138" x2="50.3005" y2="-5.00737">
  <stop offset="0" style="stop-color:#FFAF22"/>
  <stop offset="1" style="stop-color:#F09900"/>
 </linearGradient>
 <radialGradient id="id1" gradientUnits="userSpaceOnUse" cx="15.6127" cy="29.805" r="67.9637" fx="15.6127" fy="29.805">
  <stop offset="0" style="stop-color:#D6B849"/>
  <stop offset="0.541176" style="stop-color:#D6B849"/>
  <stop offset="0.670588" style="stop-color:#FFCE47"/>
  <stop offset="1" style="stop-color:#FFDB73"/>
  <stop offset="1" style="stop-color:#FFDB73"/>
 </radialGradient>
 </defs>
<symbol id="sun" viewBox="-52.351 -38.1586 135.927 135.927">
 <polygon class="fil0" points="58.1149,41.1765 83.5764,29.805 58.1149,18.4004 74.4261,-4.24311 46.7102,-1.32565 49.5282,-29.0913 26.9842,-12.6971 15.6127,-38.1586 4.20806,-12.6971 -18.4354,-29.0084 -15.518,-1.29249 -43.2836,-4.1105 -26.8895,18.4335 -52.351,29.805 -26.8895,41.1268 -43.2007,63.8532 -15.4848,60.9357 -18.3028,88.7013 4.24122,72.3072 15.6127,97.7687 26.9344,72.3072 49.578,88.6185 46.7434,60.9025 74.509,63.704 "/>
 <path class="fil1" d="M-20.3915 50.5257c7.40315,12.8109 21.0837,20.7086 35.8823,20.7086 22.8835,0 41.4412,-18.5577 41.4412,-41.4413 0,-22.8835 -18.5577,-41.4413 -41.4412,-41.4413 -7.2703,0 -14.4192,1.91751 -20.7131,5.55013 -12.8204,7.39675 -20.7282,21.0874 -20.7282,35.8911 0,7.27535 1.92256,14.4343 5.56023,20.7333l-0.00126297 -0.00055255z"/>
 <path class="fil2" d="M-14.656 47.2104c6.21919,10.7653 17.7108,17.4035 30.1459,17.4035 19.222,0 34.8106,-15.5885 34.8106,-34.8107 0,-19.2221 -15.5885,-34.8107 -34.8106,-34.8107 -6.10702,0 -12.1121,1.60642 -17.3989,4.65784 -10.7735,6.21335 -17.4117,17.7135 -17.4117,30.1528 0,6.10702 1.61495,12.1206 4.66636,17.4075l-0.00165765 -0.000315743z"/>
</symbol>
<symbol id="s01d" viewBox="-37.4321 -23.2398 135.927 135.927">
 <use x="-37.4321" y="-23.2398" width="135.927" height="135.927" xlink:href="#sun"/>
</symbol>
 <g id="Слой_x0020_1">
  <metadata id="CorelCorpID_0Corel-Layer"/>
  <polygon class="fil3" points="48.2007,103.759 35.6052,27.5708 44.7412,24.433 10.4354,0 7.89357e-005,40.53 9.1361,37.3922 "/>
 </g>
</svg>
