<?xml version="1.0" encoding="UTF-8"?>
<!DOCTYPE svg PUBLIC "-//W3C//DTD SVG 1.1//EN" "http://www.w3.org/Graphics/SVG/1.1/DTD/svg11.dtd">
<!-- Creator: CorelDRAW -->
<?xml-stylesheet href="w180.css" type="text/css"?>
<svg xmlns="http://www.w3.org/2000/svg" xml:space="preserve" width="60.2373mm" height="139.884mm" style="shape-rendering:geometricPrecision; text-rendering:geometricPrecision; image-rendering:optimizeQuality; fill-rule:evenodd; clip-rule:evenodd"
viewBox="0 0 57.2528 132.953"
 xmlns:xlink="http://www.w3.org/1999/xlink">
 <defs>
 <linearGradient id="id0" gradientUnits="userSpaceOnUse" x1="-29.9076" y1="79.9924" x2="53.9222" y2="-3.83746">
  <stop offset="0" style="stop-color:#FFAF22"/>
  <stop offset="1" style="stop-color:#F09900"/>
 </linearGradient>
 <radialGradient id="id1" gradientUnits="userSpaceOnUse" cx="12.1551" cy="38.0797" r="81.8341" fx="12.1551" fy="38.0797">
  <stop offset="0" style="stop-color:#D6B849"/>
  <stop offset="0.541176" style="stop-color:#D6B849"/>
  <stop offset="0.670588" style="stop-color:#FFCE47"/>
  <stop offset="1" style="stop-color:#FFDB73"/>
  <stop offset="1" style="stop-color:#FFDB73"/>
 </radialGradient>
 </defs>
<symbol id="sun" viewBox="-69.679 -43.7544 163.668 163.668">
 <polygon class="fil0" points="63.3313,51.7719 93.9892,38.0797 63.3313,24.3475 82.9715,-2.91723 49.5992,0.595649 52.9923,-32.8366 25.8473,-13.0966 12.1551,-43.7544 -1.57709,-13.0966 -28.8418,-32.7368 -25.3289,0.635569 -58.7611,-2.75755 -39.0212,24.3874 -69.679,38.0797 -39.0212,51.712 -58.6614,79.0765 -25.289,75.5637 -28.6821,108.996 -1.53717,89.2559 12.1551,119.914 25.7874,89.2559 53.0522,108.896 49.6391,75.5237 83.0713,78.8969 "/>
 <path class="fil1" d="M-31.197 63.0291c8.91402,15.4254 25.3865,24.9349 43.2054,24.9349 27.5537,0 49.8987,-22.3451 49.8987,-49.8988 0,-27.5538 -22.3451,-49.8988 -49.8987,-49.8988 -8.75406,0 -17.3619,2.30884 -24.9403,6.68283 -15.4369,8.90632 -24.9585,25.3911 -24.9585,43.216 0,8.76014 2.31493,17.3802 6.695,24.9646l-0.00152073 -0.000665318z"/>
 <path class="fil2" d="M-24.291 59.0372c7.48844,12.9623 21.3253,20.9553 36.2983,20.9553 23.145,0 41.9149,-18.7699 41.9149,-41.915 0,-23.1451 -18.7699,-41.915 -41.9149,-41.915 -7.35338,0 -14.5841,1.93427 -20.9498,5.60844 -12.9722,7.4814 -20.9652,21.3286 -20.9652,36.3066 0,7.35338 1.94453,14.5942 5.6187,20.9601l-0.00199595 -0.000380182z"/>
</symbol>
<symbol id="s01d" viewBox="-51.7154 -25.7909 163.668 163.668">
 <use x="-51.7154" y="-25.7909" width="163.668" height="163.668" xlink:href="#sun"/>
</symbol>
 <g id="Слой_x0020_1">
  <metadata id="CorelCorpID_0Corel-Layer"/>
  <polygon class="fil3" points="28.4985,132.953 45.6231,41.5611 57.2526,41.7731 28.4985,0 9.50454e-005,41.5611 11.6295,41.7731 "/>
 </g>
</svg>
