<?xml version="1.0" encoding="UTF-8"?>
<!DOCTYPE svg PUBLIC "-//W3C//DTD SVG 1.1//EN" "http://www.w3.org/Graphics/SVG/1.1/DTD/svg11.dtd">
<!-- Creator: CorelDRAW -->
<?xml-stylesheet href="w200.css" type="text/css"?>
<svg xmlns="http://www.w3.org/2000/svg" xml:space="preserve" width="61.2399mm" height="131.448mm" style="shape-rendering:geometricPrecision; text-rendering:geometricPrecision; image-rendering:optimizeQuality; fill-rule:evenodd; clip-rule:evenodd"
viewBox="0 0 73.3824 157.511"
 xmlns:xlink="http://www.w3.org/1999/xlink">
 <defs>
 <linearGradient id="id0" gradientUnits="userSpaceOnUse" x1="-45.0578" y1="96.7942" x2="60.6301" y2="-8.89362">
  <stop offset="0" style="stop-color:#FFAF22"/>
  <stop offset="1" style="stop-color:#F09900"/>
 </linearGradient>
 <radialGradient id="id1" gradientUnits="userSpaceOnUse" cx="7.9725" cy="43.9531" r="103.172" fx="7.9725" fy="43.9531">
  <stop offset="0" style="stop-color:#D6B849"/>
  <stop offset="0.541176" style="stop-color:#D6B849"/>
  <stop offset="0.670588" style="stop-color:#FFCE47"/>
  <stop offset="1" style="stop-color:#FFDB73"/>
  <stop offset="1" style="stop-color:#FFDB73"/>
 </radialGradient>
 </defs>
<symbol id="sun" viewBox="-95.1992 -59.2186 206.343 206.343">
 <polygon class="fil0" points="72.4926,61.2155 111.144,43.9531 72.4926,26.6403 97.2538,-7.73344 55.1799,-3.30461 59.4577,-45.454 25.2349,-20.567 7.9725,-59.2186 -9.34022,-20.567 -43.714,-45.3282 -39.2852,-3.25428 -81.4346,-7.53213 -56.5476,26.6907 -95.1992,43.9531 -56.5476,61.14 -81.3088,95.6396 -39.2348,91.2107 -43.5127,133.36 -9.28989,108.473 7.9725,147.125 25.1594,108.473 59.5332,133.234 55.2302,91.1604 97.3796,95.4131 "/>
 <path class="fil1" d="M-46.6833 75.4079c11.2383,19.4474 32.0059,31.4365 54.4708,31.4365 34.7381,0 62.9095,-28.1714 62.9095,-62.9096 0,-34.7382 -28.1714,-62.9096 -62.9095,-62.9096 -11.0366,0 -21.8889,2.91086 -31.4433,8.42533 -19.4619,11.2286 -31.4663,32.0116 -31.4663,54.4842 0,11.0443 2.91853,21.9119 8.44067,31.474l-0.00191724 -0.000838794z"/>
 <path class="fil2" d="M-37.9767 70.3751c9.44099,16.3421 26.8858,26.4193 45.7628,26.4193 29.1799,0 52.8439,-23.6641 52.8439,-52.844 0,-29.18 -23.6641,-52.844 -52.8439,-52.844 -9.27072,0 -18.3867,2.43861 -26.4123,7.0708 -16.3546,9.43212 -26.4317,26.8898 -26.4317,45.7733 0,9.27072 2.45156,18.3996 7.08374,26.4253l-0.00251638 -0.000479311z"/>
</symbol>
<symbol id="s01d" viewBox="-72.5518 -36.5712 206.343 206.343">
 <use x="-72.5518" y="-36.5712" width="206.343" height="206.343" xlink:href="#sun"/>
</symbol>
 <g id="Слой_x0020_1">
  <metadata id="CorelCorpID_0Corel-Layer"/>
  <polygon class="fil3" points="0.000119828,157.511 59.696,56.6221 73.382,61.8879 57.3293,0.000119828 5.64581,36.9494 19.3319,42.2152 "/>
 </g>
</svg>
