<?xml version="1.0" encoding="UTF-8"?>
<!DOCTYPE svg PUBLIC "-//W3C//DTD SVG 1.1//EN" "http://www.w3.org/Graphics/SVG/1.1/DTD/svg11.dtd">
<!-- Creator: CorelDRAW -->
<?xml-stylesheet href="w210.css" type="text/css"?>
<svg xmlns="http://www.w3.org/2000/svg" xml:space="preserve" width="74.1668mm" height="121.143mm" style="shape-rendering:geometricPrecision; text-rendering:geometricPrecision; image-rendering:optimizeQuality; fill-rule:evenodd; clip-rule:evenodd"
viewBox="0 0 75.3502 123.076"
 xmlns:xlink="http://www.w3.org/1999/xlink">
 <defs>
 <linearGradient id="id0" gradientUnits="userSpaceOnUse" x1="-27.0797" y1="78.0138" x2="62.5274" y2="-11.5933">
  <stop offset="0" style="stop-color:#FFAF22"/>
  <stop offset="1" style="stop-color:#F09900"/>
 </linearGradient>
 <radialGradient id="id1" gradientUnits="userSpaceOnUse" cx="17.8818" cy="33.2126" r="87.4738" fx="17.8818" fy="33.2126">
  <stop offset="0" style="stop-color:#D6B849"/>
  <stop offset="0.541176" style="stop-color:#D6B849"/>
  <stop offset="0.670588" style="stop-color:#FFCE47"/>
  <stop offset="1" style="stop-color:#FFDB73"/>
  <stop offset="1" style="stop-color:#FFDB73"/>
 </radialGradient>
 </defs>
<symbol id="sun" viewBox="-69.592 -54.2612 174.948 174.948">
 <polygon class="fil0" points="72.585,47.8485 105.356,33.2126 72.585,18.5341 93.5787,-10.6096 57.9064,-6.85465 61.5334,-42.5909 32.5177,-21.4905 17.8818,-54.2612 3.20331,-21.4905 -25.9404,-42.4842 -22.1854,-6.81198 -57.9217,-10.4389 -36.8213,18.5768 -69.592,33.2126 -36.8213,47.7845 -57.815,77.0348 -22.1428,73.2799 -25.7697,109.016 3.24598,87.9157 17.8818,120.686 32.4537,87.9157 61.5974,108.909 57.9491,73.2372 93.6853,76.8428 "/>
 <path class="fil1" d="M-28.4579 59.8814c9.52834,16.4885 27.1361,26.6533 46.1829,26.6533 29.4526,0 53.3376,-23.885 53.3376,-53.3377 0,-29.4527 -23.885,-53.3377 -53.3376,-53.3377 -9.35736,0 -18.5585,2.46796 -26.6591,7.14339 -16.5007,9.52011 -26.6786,27.141 -26.6786,46.1943 0,9.36386 2.47446,18.578 7.15639,26.6851l-0.00162553 -0.000711169z"/>
 <path class="fil2" d="M-21.076 55.6144c8.00451,13.8556 22.795,22.3995 38.7999,22.3995 24.74,0 44.8035,-20.0635 44.8035,-44.8036 0,-24.7401 -20.0635,-44.8036 -44.8035,-44.8036 -7.86014,0 -15.5891,2.06757 -22.3936,5.99495 -13.8662,7.99699 -22.4101,22.7985 -22.4101,38.8087 0,7.86014 2.07854,15.6 6.00592,22.4046l-0.00213351 -0.000406382z"/>
</symbol>
<symbol id="s01d" viewBox="-50.3904 -35.0596 174.948 174.948">
 <use x="-50.3904" y="-35.0596" width="174.948" height="174.948" xlink:href="#sun"/>
</symbol>
 <g id="Слой_x0020_1">
  <metadata id="CorelCorpID_0Corel-Layer"/>
  <polygon class="fil3" points="0.000203191,123.076 64.6978,47.626 75.3499,54.0378 71.058,0.000203191 22.4641,23.2424 33.1162,29.6541 "/>
 </g>
</svg>
