<?xml version="1.0" encoding="UTF-8"?>
<!DOCTYPE svg PUBLIC "-//W3C//DTD SVG 1.1//EN" "http://www.w3.org/Graphics/SVG/1.1/DTD/svg11.dtd">
<!-- Creator: CorelDRAW -->
<?xml-stylesheet href="w240.css" type="text/css"?>
<svg xmlns="http://www.w3.org/2000/svg" xml:space="preserve" width="121.143mm" height="74.045mm" style="shape-rendering:geometricPrecision; text-rendering:geometricPrecision; image-rendering:optimizeQuality; fill-rule:evenodd; clip-rule:evenodd"
viewBox="0 0 118.219 72.2579"
 xmlns:xlink="http://www.w3.org/1999/xlink">
 <defs>
 <linearGradient id="id0" gradientUnits="userSpaceOnUse" x1="-1.05969" y1="54.3145" x2="85.0113" y2="-31.7566">
  <stop offset="0" style="stop-color:#FFAF22"/>
  <stop offset="1" style="stop-color:#F09900"/>
 </linearGradient>
 <radialGradient id="id1" gradientUnits="userSpaceOnUse" cx="42.1276" cy="11.2812" r="84.0219" fx="42.1276" fy="11.2812">
  <stop offset="0" style="stop-color:#D6B849"/>
  <stop offset="0.541176" style="stop-color:#D6B849"/>
  <stop offset="0.670588" style="stop-color:#FFCE47"/>
  <stop offset="1" style="stop-color:#FFDB73"/>
  <stop offset="1" style="stop-color:#FFDB73"/>
 </radialGradient>
 </defs>
<symbol id="sun" viewBox="-41.8943 -72.7407 168.044 168.044">
 <polygon class="fil0" points="94.672,25.3395 126.149,11.2812 94.672,-2.8181 114.837,-30.8117 80.5727,-27.2049 84.0565,-61.531 56.1859,-41.2632 42.1276,-72.7407 28.0283,-41.2632 0.0346432,-61.4285 3.64144,-27.164 -30.6846,-30.6478 -10.4169,-2.77711 -41.8943,11.2812 -10.4169,25.278 -30.5821,53.3741 3.68242,49.7673 0.198588,84.0933 28.0693,63.8256 42.1276,95.3031 56.1244,63.8256 84.118,83.9909 80.6137,49.7263 114.94,53.1897 "/>
 <path class="fil1" d="M-2.38355 36.8976c9.15234,15.8378 26.0652,25.6015 44.3604,25.6015 28.2903,0 51.2328,-22.9425 51.2328,-51.2329 0,-28.2904 -22.9425,-51.2329 -51.2328,-51.2329 -8.9881,0 -17.8261,2.37057 -25.6071,6.8615 -15.8496,9.14443 -25.6258,26.0699 -25.6258,44.3714 0,8.99434 2.37681,17.8448 6.87399,25.632l-0.00156138 -0.000683105z"/>
 <path class="fil2" d="M4.70708 32.799c7.68864,13.3088 21.8955,21.5156 37.2687,21.5156 23.7638,0 43.0355,-19.2718 43.0355,-43.0356 0,-23.7639 -19.2718,-43.0356 -43.0355,-43.0356 -7.54997,0 -14.974,1.98598 -21.5099,5.75838 -13.319,7.68142 -21.5257,21.8988 -21.5257,37.2772 0,7.54997 1.99652,14.9844 5.76892,21.5204l-0.00204931 -0.000390346z"/>
</symbol>
<symbol id="s01d" viewBox="-23.4505 -54.2969 168.044 168.044">
 <use x="-23.4505" y="-54.2969" width="168.044" height="168.044" xlink:href="#sun"/>
</symbol>
 <g id="Слой_x0020_1">
  <metadata id="CorelCorpID_0Corel-Layer"/>
  <polygon class="fil3" points="0.000195173,72.2579 90.0552,40.5671 95.8368,51.0165 118.219,4.00407 66.6338,0 72.4154,10.4495 "/>
 </g>
</svg>
