<?xml version="1.0" encoding="UTF-8"?>
<!DOCTYPE svg PUBLIC "-//W3C//DTD SVG 1.1//EN" "http://www.w3.org/Graphics/SVG/1.1/DTD/svg11.dtd">
<!-- Creator: CorelDRAW -->
<?xml-stylesheet href="w270.css" type="text/css"?>
<svg xmlns="http://www.w3.org/2000/svg" xml:space="preserve" width="139.884mm" height="60.2373mm" style="shape-rendering:geometricPrecision; text-rendering:geometricPrecision; image-rendering:optimizeQuality; fill-rule:evenodd; clip-rule:evenodd"
viewBox="0 0 132.736 57.1595"
 xmlns:xlink="http://www.w3.org/1999/xlink">
 <defs>
 <linearGradient id="id0" gradientUnits="userSpaceOnUse" x1="10.0134" y1="44.3766" x2="93.7067" y2="-39.3167">
  <stop offset="0" style="stop-color:#FFAF22"/>
  <stop offset="1" style="stop-color:#F09900"/>
 </linearGradient>
 <radialGradient id="id1" gradientUnits="userSpaceOnUse" cx="52.0076" cy="2.53215" r="81.7007" fx="52.0076" fy="2.53215">
  <stop offset="0" style="stop-color:#D6B849"/>
  <stop offset="0.541176" style="stop-color:#D6B849"/>
  <stop offset="0.670588" style="stop-color:#FFCE47"/>
  <stop offset="1" style="stop-color:#FFDB73"/>
  <stop offset="1" style="stop-color:#FFDB73"/>
 </radialGradient>
 </defs>
<symbol id="sun" viewBox="-29.6931 -79.1686 163.401 163.401">
 <polygon class="fil0" points="103.1,16.2021 133.708,2.53215 103.1,-11.1776 122.709,-38.3979 89.3907,-34.8908 92.7783,-68.2685 65.6775,-48.5607 52.0076,-79.1686 38.2978,-48.5607 11.0775,-68.1689 14.5847,-34.8509 -18.7931,-38.2385 0.914745,-11.1378 -29.6931,2.53215 0.914745,16.1423 -18.6934,43.4622 14.6245,39.9551 11.2369,73.3328 38.3377,53.625 52.0076,84.2329 65.6177,53.625 92.838,73.2332 89.4305,39.9152 122.808,43.2829 "/>
 <path class="fil1" d="M8.72613 27.4409c8.8995,15.4003 25.3452,24.8942 43.135,24.8942 27.5088,0 49.8174,-22.3087 49.8174,-49.8175 0,-27.5089 -22.3087,-49.8175 -49.8174,-49.8175 -8.7398,0 -17.3337,2.30508 -24.8997,6.67194 -15.4117,8.89181 -24.9179,25.3497 -24.9179,43.1456 0,8.74587 2.31115,17.3519 6.68409,24.9239l-0.00151825 -0.000664234z"/>
 <path class="fil2" d="M15.6209 23.4555c7.47623,12.9412 21.2906,20.9212 36.2392,20.9212 23.1073,0 41.8466,-18.7394 41.8466,-41.8467 0,-23.1074 -18.7394,-41.8467 -41.8466,-41.8467 -7.34139,0 -14.5603,1.93112 -20.9157,5.5993 -12.951,7.46921 -20.931,21.2938 -20.931,36.2474 0,7.34139 1.94137,14.5704 5.60955,20.9259l-0.0019927 -0.000379562z"/>
</symbol>
<symbol id="s01d" viewBox="-11.7588 -61.2343 163.401 163.401">
 <use x="-11.7588" y="-61.2343" width="163.401" height="163.401" xlink:href="#sun"/>
</symbol>
 <g id="Слой_x0020_1">
  <metadata id="CorelCorpID_0Corel-Layer"/>
  <polygon class="fil3" points="9.48905e-005,28.452 91.2431,45.5487 91.0314,57.1592 132.736,28.452 91.2431,0 91.0314,11.6104 "/>
 </g>
</svg>
