<?xml version="1.0" encoding="UTF-8"?>
<!DOCTYPE svg PUBLIC "-//W3C//DTD SVG 1.1//EN" "http://www.w3.org/Graphics/SVG/1.1/DTD/svg11.dtd">
<!-- Creator: CorelDRAW -->
<?xml-stylesheet href="w290.css" type="text/css"?>
<svg xmlns="http://www.w3.org/2000/svg" xml:space="preserve" width="131.448mm" height="61.24mm" style="shape-rendering:geometricPrecision; text-rendering:geometricPrecision; image-rendering:optimizeQuality; fill-rule:evenodd; clip-rule:evenodd"
viewBox="0 0 125.834 58.6243"
 xmlns:xlink="http://www.w3.org/1999/xlink">
 <defs>
 <linearGradient id="id0" gradientUnits="userSpaceOnUse" x1="5.26604" y1="38.8954" x2="89.6987" y2="-45.5372">
  <stop offset="0" style="stop-color:#FFAF22"/>
  <stop offset="1" style="stop-color:#F09900"/>
 </linearGradient>
 <radialGradient id="id1" gradientUnits="userSpaceOnUse" cx="47.6312" cy="-3.31873" r="82.4225" fx="47.6312" fy="-3.31873">
  <stop offset="0" style="stop-color:#D6B849"/>
  <stop offset="0.541176" style="stop-color:#D6B849"/>
  <stop offset="0.670588" style="stop-color:#FFCE47"/>
  <stop offset="1" style="stop-color:#FFDB73"/>
  <stop offset="1" style="stop-color:#FFDB73"/>
 </radialGradient>
 </defs>
<symbol id="sun" viewBox="-34.7913 -85.7412 164.845 164.845">
 <polygon class="fil0" points="99.1754,10.472 130.054,-3.31873 99.1754,-17.1496 118.957,-44.6104 85.3445,-41.0723 88.762,-74.7449 61.4219,-54.8629 47.6312,-85.7412 33.8003,-54.8629 6.33954,-74.6443 9.87768,-41.032 -23.7949,-44.4496 -3.91301,-17.1094 -34.7913,-3.31873 -3.91301,10.4117 -23.6944,37.9729 9.91789,34.4348 6.50037,68.1074 33.8405,48.2255 47.6312,79.1038 61.3616,48.2255 88.8224,68.0069 85.3847,34.3946 119.057,37.792 "/>
 <path class="fil1" d="M3.96738 21.8101c8.97812,15.5363 25.5691,25.1142 43.516,25.1142 27.7518,0 50.2575,-22.5057 50.2575,-50.2576 0,-27.7519 -22.5057,-50.2576 -50.2575,-50.2576 -8.81701,0 -17.4868,2.32544 -25.1196,6.73088 -15.5479,8.97036 -25.138,25.5737 -25.138,43.5267 0,8.82313 2.33157,17.5052 6.74314,25.1441l-0.00153166 -0.000670102z"/>
 <path class="fil2" d="M10.923 17.7895c7.54228,13.0555 21.4787,21.106 36.5593,21.106 23.3114,0 42.2163,-18.9049 42.2163,-42.2164 0,-23.3115 -18.9049,-42.2164 -42.2163,-42.2164 -7.40625,0 -14.6889,1.94818 -21.1004,5.64877 -13.0654,7.5352 -21.116,21.4819 -21.116,36.5676 0,7.40625 1.95852,14.6992 5.6591,21.1108l-0.0020103 -0.000382915z"/>
</symbol>
<symbol id="s01d" viewBox="-16.6985 -67.6485 164.845 164.845">
 <use x="-16.6985" y="-67.6485" width="164.845" height="164.845" xlink:href="#sun"/>
</symbol>
 <g id="Слой_x0020_1">
  <metadata id="CorelCorpID_0Corel-Layer"/>
  <polygon class="fil3" points="-0,9.57288e-005 80.5988,47.6904 76.392,58.6239 125.833,45.7997 96.315,4.51045 92.1081,15.444 "/>
 </g>
</svg>
