<?xml version="1.0" encoding="UTF-8"?>
<!DOCTYPE svg PUBLIC "-//W3C//DTD SVG 1.1//EN" "http://www.w3.org/Graphics/SVG/1.1/DTD/svg11.dtd">
<!-- Creator: CorelDRAW -->
<?xml-stylesheet href="w310.css" type="text/css"?>
<svg xmlns="http://www.w3.org/2000/svg" xml:space="preserve" width="107.157mm" height="89.9153mm" style="shape-rendering:geometricPrecision; text-rendering:geometricPrecision; image-rendering:optimizeQuality; fill-rule:evenodd; clip-rule:evenodd"
viewBox="0 0 104.424 87.6218"
 xmlns:xlink="http://www.w3.org/1999/xlink">
 <defs>
 <linearGradient id="id0" gradientUnits="userSpaceOnUse" x1="-7.9658" y1="59.9637" x2="77.9843" y2="-25.9864">
  <stop offset="0" style="stop-color:#FFAF22"/>
  <stop offset="1" style="stop-color:#F09900"/>
 </linearGradient>
 <radialGradient id="id1" gradientUnits="userSpaceOnUse" cx="35.1608" cy="16.9909" r="83.9039" fx="35.1608" fy="16.9909">
  <stop offset="0" style="stop-color:#D6B849"/>
  <stop offset="0.541176" style="stop-color:#D6B849"/>
  <stop offset="0.670588" style="stop-color:#FFCE47"/>
  <stop offset="1" style="stop-color:#FFDB73"/>
  <stop offset="1" style="stop-color:#FFDB73"/>
 </radialGradient>
 </defs>
<symbol id="sun" viewBox="-48.7431 -66.913 167.808 167.808">
 <polygon class="fil0" points="87.6314,31.0294 119.065,16.9909 87.6314,2.9114 107.768,-25.0429 73.5519,-21.4412 77.0308,-55.719 49.1993,-35.4797 35.1608,-66.913 21.0813,-35.4797 -6.873,-55.6167 -3.27128,-21.4003 -37.5491,-24.8792 -17.3098,2.95232 -48.7431,16.9909 -17.3098,30.968 -37.4467,59.0247 -3.23035,55.4229 -6.70929,89.7007 21.1222,69.4615 35.1608,100.895 49.1379,69.4615 77.0922,89.5984 73.5928,55.382 107.871,58.8405 "/>
 <path class="fil1" d="M-9.2878 42.5713c9.13948,15.8155 26.0286,25.5655 44.2981,25.5655 28.2506,0 51.1608,-22.9102 51.1608,-51.1609 0,-28.2507 -22.9102,-51.1609 -51.1608,-51.1609 -8.97547,0 -17.8011,2.36724 -25.5711,6.85186 -15.8273,9.13158 -25.5898,26.0333 -25.5898,44.309 0,8.98171 2.37348,17.8198 6.86433,25.596l-0.00155919 -0.000682145z"/>
 <path class="fil2" d="M-2.20713 38.4784c7.67784,13.2901 21.8647,21.4853 37.2164,21.4853 23.7304,0 42.975,-19.2447 42.975,-42.9751 0,-23.7305 -19.2447,-42.9751 -42.975,-42.9751 -7.53936,0 -14.9529,1.98319 -21.4797,5.75029 -13.3003,7.67062 -21.4955,21.868 -21.4955,37.2249 0,7.53936 1.99372,14.9633 5.76081,21.4902l-0.00204644 -0.000389797z"/>
</symbol>
<symbol id="s01d" viewBox="-30.3252 -48.4951 167.808 167.808">
 <use x="-30.3252" y="-48.4951" width="167.808" height="167.808" xlink:href="#sun"/>
</symbol>
 <g id="Слой_x0020_1">
  <metadata id="CorelCorpID_0Corel-Layer"/>
  <polygon class="fil3" points="-9.74493e-005,9.74493e-005 60.4951,73.6815 52.6641,82.6758 104.424,87.6221 90.5628,37.8483 82.7318,46.8425 "/>
 </g>
</svg>
