<?xml version="1.0" encoding="UTF-8"?>
<!DOCTYPE svg PUBLIC "-//W3C//DTD SVG 1.1//EN" "http://www.w3.org/Graphics/SVG/1.1/DTD/svg11.dtd">
<!-- Creator: CorelDRAW -->
<?xml-stylesheet href="w320.css" type="text/css"?>
<svg xmlns="http://www.w3.org/2000/svg" xml:space="preserve" width="89.9158mm" height="107.157mm" style="shape-rendering:geometricPrecision; text-rendering:geometricPrecision; image-rendering:optimizeQuality; fill-rule:evenodd; clip-rule:evenodd"
viewBox="0 0 87.1958 103.915"
 xmlns:xlink="http://www.w3.org/1999/xlink">
 <defs>
 <linearGradient id="id0" gradientUnits="userSpaceOnUse" x1="-16.287" y1="68.0318" x2="69.2447" y2="-17.4999">
  <stop offset="0" style="stop-color:#FFAF22"/>
  <stop offset="1" style="stop-color:#F09900"/>
 </linearGradient>
 <radialGradient id="id1" gradientUnits="userSpaceOnUse" cx="26.6296" cy="25.2682" r="83.4955" fx="26.6296" fy="25.2682">
  <stop offset="0" style="stop-color:#D6B849"/>
  <stop offset="0.541176" style="stop-color:#D6B849"/>
  <stop offset="0.670588" style="stop-color:#FFCE47"/>
  <stop offset="1" style="stop-color:#FFDB73"/>
  <stop offset="1" style="stop-color:#FFDB73"/>
 </radialGradient>
 </defs>
<symbol id="sun" viewBox="-56.8658 -58.2273 166.991 166.991">
 <polygon class="fil0" points="78.8448,39.2384 110.125,25.2682 78.8448,11.2572 98.8838,-16.561 64.8339,-12.9768 68.2959,-47.0878 40.5998,-26.947 26.6296,-58.2273 12.6187,-26.947 -15.1996,-46.9859 -11.6154,-12.9361 -45.7263,-16.3981 -25.5856,11.298 -56.8658,25.2682 -25.5856,39.1773 -45.6245,67.0974 -11.5746,63.5132 -15.0367,97.6241 12.6594,77.4834 26.6296,108.764 40.5387,77.4834 68.357,97.5223 64.8746,63.4725 98.9856,66.9141 "/>
 <path class="fil1" d="M-17.6026 50.7241c9.09499,15.7386 25.9019,25.4411 44.0825,25.4411 28.1131,0 50.9118,-22.7987 50.9118,-50.9119 0,-28.1131 -22.7987,-50.9119 -50.9118,-50.9119 -8.93179,0 -17.7144,2.35572 -25.4466,6.81851 -15.7503,9.08714 -25.4652,25.9066 -25.4652,44.0934 0,8.93799 2.36192,17.733 6.83092,25.4715l-0.0015516 -0.000678825z"/>
 <path class="fil2" d="M-10.5564 46.6512c7.64047,13.2255 21.7583,21.3808 37.0352,21.3808 23.6149,0 42.7659,-19.151 42.7659,-42.766 0,-23.615 -19.151,-42.766 -42.7659,-42.766 -7.50266,0 -14.8801,1.97354 -21.3751,5.7223 -13.2355,7.63329 -21.3908,21.7616 -21.3908,37.0437 0,7.50266 1.98401,14.8905 5.73277,21.3856l-0.00203647 -0.0003879z"/>
</symbol>
<symbol id="s01d" viewBox="-38.5376 -39.899 166.991 166.991">
 <use x="-38.5376" y="-39.899" width="166.991" height="166.991" xlink:href="#sun"/>
</symbol>
 <g id="Слой_x0020_1">
  <metadata id="CorelCorpID_0Corel-Layer"/>
  <polygon class="fil3" points="-9.6975e-005,9.6975e-005 46.5536,82.6627 37.325,90.124 87.1955,103.916 82.2125,52.7414 72.9839,60.2027 "/>
 </g>
</svg>
