<?xml version="1.0" encoding="UTF-8"?>
<!DOCTYPE svg PUBLIC "-//W3C//DTD SVG 1.1//EN" "http://www.w3.org/Graphics/SVG/1.1/DTD/svg11.dtd">
<!-- Creator: CorelDRAW -->
<?xml-stylesheet href="w330.css" type="text/css"?>
<svg xmlns="http://www.w3.org/2000/svg" xml:space="preserve" width="74.0448mm" height="121.143mm" style="shape-rendering:geometricPrecision; text-rendering:geometricPrecision; image-rendering:optimizeQuality; fill-rule:evenodd; clip-rule:evenodd"
viewBox="0 0 75.3658 123.304"
 xmlns:xlink="http://www.w3.org/1999/xlink">
 <defs>
 <linearGradient id="id0" gradientUnits="userSpaceOnUse" x1="-27.2597" y1="78.5232" x2="62.5136" y2="-11.2501">
  <stop offset="0" style="stop-color:#FFAF22"/>
  <stop offset="1" style="stop-color:#F09900"/>
 </linearGradient>
 <radialGradient id="id1" gradientUnits="userSpaceOnUse" cx="17.7852" cy="33.6389" r="87.636" fx="17.7852" fy="33.6389">
  <stop offset="0" style="stop-color:#D6B849"/>
  <stop offset="0.541176" style="stop-color:#D6B849"/>
  <stop offset="0.670588" style="stop-color:#FFCE47"/>
  <stop offset="1" style="stop-color:#FFDB73"/>
  <stop offset="1" style="stop-color:#FFDB73"/>
 </radialGradient>
 </defs>
<symbol id="sun" viewBox="-69.8508 -53.9971 175.272 175.272">
 <polygon class="fil0" points="72.5898,48.3019 105.421,33.6389 72.5898,18.9331 93.6224,-10.2646 57.884,-6.50267 61.5177,-42.3052 32.4482,-21.1657 17.7852,-53.9971 3.07947,-21.1657 -26.1183,-42.1983 -22.3563,-6.45992 -58.1589,-10.0936 -37.0193,18.9759 -69.8508,33.6389 -37.0193,48.2378 -58.052,77.5424 -22.3136,73.7805 -25.9473,109.583 3.12222,88.4435 17.7852,121.275 32.3841,88.4435 61.5819,109.476 57.9268,73.7377 93.7293,77.35 "/>
 <path class="fil1" d="M-28.6405 60.3572c9.54602,16.519 27.1864,26.7027 46.2686,26.7027 29.5072,0 53.4365,-23.9293 53.4365,-53.4366 0,-29.5073 -23.9293,-53.4366 -53.4365,-53.4366 -9.37471,0 -18.5929,2.47254 -26.7085,7.15664 -16.5313,9.53777 -26.7281,27.1913 -26.7281,46.28 0,9.38123 2.47905,18.6124 7.16966,26.7346l-0.00162854 -0.000712488z"/>
 <path class="fil2" d="M-21.2449 56.0823c8.01936,13.8813 22.8373,22.441 38.8718,22.441 24.7859,0 44.8866,-20.1007 44.8866,-44.8867 0,-24.786 -20.1007,-44.8867 -44.8866,-44.8867 -7.87472,0 -15.618,2.07141 -22.4351,6.00607 -13.8919,8.01183 -22.4516,22.8407 -22.4516,38.8807 0,7.87472 2.0824,15.6289 6.01706,22.4461l-0.00213746 -0.000407136z"/>
</symbol>
<symbol id="s01d" viewBox="-50.6136 -34.7599 175.272 175.272">
 <use x="-50.6136" y="-34.7599" width="175.272" height="175.272" xlink:href="#sun"/>
</symbol>
 <g id="Слой_x0020_1">
  <metadata id="CorelCorpID_0Corel-Layer"/>
  <polygon class="fil3" points="-0.000101784,0.000101784 33.0538,93.9287 22.1549,99.959 71.1895,123.304 75.3659,69.4998 64.4669,75.5301 "/>
 </g>
</svg>
