<?xml version="1.0" encoding="UTF-8"?>
<!DOCTYPE svg PUBLIC "-//W3C//DTD SVG 1.1//EN" "http://www.w3.org/Graphics/SVG/1.1/DTD/svg11.dtd">
<!-- Creator: CorelDRAW -->
<?xml-stylesheet href="w350.css" type="text/css"?>
<svg xmlns="http://www.w3.org/2000/svg" xml:space="preserve" width="59.3608mm" height="137.759mm" style="shape-rendering:geometricPrecision; text-rendering:geometricPrecision; image-rendering:optimizeQuality; fill-rule:evenodd; clip-rule:evenodd"
viewBox="0 0 66.356 153.992"
 xmlns:xlink="http://www.w3.org/1999/xlink">
 <defs>
 <linearGradient id="id0" gradientUnits="userSpaceOnUse" x1="-40.9174" y1="97.2063" x2="57.6761" y2="-1.38724">
  <stop offset="0" style="stop-color:#FFAF22"/>
  <stop offset="1" style="stop-color:#F09900"/>
 </linearGradient>
 <radialGradient id="id1" gradientUnits="userSpaceOnUse" cx="8.55317" cy="47.9121" r="96.2463" fx="8.55317" fy="47.9121">
  <stop offset="0" style="stop-color:#D6B849"/>
  <stop offset="0.541176" style="stop-color:#D6B849"/>
  <stop offset="0.670588" style="stop-color:#FFCE47"/>
  <stop offset="1" style="stop-color:#FFDB73"/>
  <stop offset="1" style="stop-color:#FFDB73"/>
 </radialGradient>
 </defs>
<symbol id="sun" viewBox="-87.6931 -48.3342 192.493 192.493">
 <polygon class="fil0" points="68.7423,64.0157 104.799,47.9121 68.7423,31.7615 91.8414,-0.304947 52.5917,3.8266 56.5824,-35.4935 24.6568,-12.277 8.55317,-48.3342 -7.59742,-12.277 -39.6639,-35.3761 -35.5323,3.87355 -74.8524,-0.11715 -51.6359,31.8084 -87.6931,47.9121 -51.6359,63.9453 -74.735,96.1291 -35.4854,91.9976 -39.4761,131.318 -7.55047,108.101 8.55317,144.158 24.5864,108.101 56.6528,131.2 52.6387,91.9506 91.9588,95.9178 "/>
 <path class="fil1" d="M-42.4339 77.2554c10.4839,18.142 29.8575,29.3263 50.8144,29.3263 32.4063,0 58.6866,-26.2804 58.6866,-58.6867 0,-32.4064 -26.2804,-58.6867 -58.6866,-58.6867 -10.2958,0 -20.4196,2.71546 -29.3326,7.85978 -18.1556,10.4749 -29.3541,29.8628 -29.3541,50.827 0,10.3029 2.72262,20.4411 7.87408,29.3613l-0.00178855 -0.00078249z"/>
 <path class="fil2" d="M-34.3116 72.5605c8.80726,15.2451 25.081,24.6459 42.691,24.6459 27.2211,0 49.2968,-22.0756 49.2968,-49.2969 0,-27.2213 -22.0756,-49.2969 -49.2968,-49.2969 -8.64841,0 -17.1525,2.27492 -24.6394,6.59617 -15.2568,8.79899 -24.6575,25.0848 -24.6575,42.7007 0,8.64841 2.28699,17.1645 6.60824,24.6514l-0.00234747 -0.000447137z"/>
</symbol>
<symbol id="s01d" viewBox="-66.5659 -27.2069 192.493 192.493">
 <use x="-66.5659" y="-27.2069" width="192.493" height="192.493" xlink:href="#sun"/>
</symbol>
 <g id="Слой_x0020_1">
  <metadata id="CorelCorpID_0Corel-Layer"/>
  <polygon class="fil3" points="14.683,0.000111784 13.5134,109.352 0.000335353,111.481 41.8359,153.992 66.3561,100.034 52.8431,102.164 "/>
 </g>
</svg>
