<?xml version="1.0" encoding="UTF-8"?>
<!DOCTYPE svg PUBLIC "-//W3C//DTD SVG 1.1//EN" "http://www.w3.org/Graphics/SVG/1.1/DTD/svg11.dtd">
<!-- Creator: CorelDRAW -->
<?xml-stylesheet href="w080.css" type="text/css"?>
<svg xmlns="http://www.w3.org/2000/svg" xml:space="preserve" width="137.759mm" height="58.6241mm" style="shape-rendering:geometricPrecision; text-rendering:geometricPrecision; image-rendering:optimizeQuality; fill-rule:evenodd; clip-rule:evenodd"
viewBox="0 0 68.3639 29.0927"
 xmlns:xlink="http://www.w3.org/1999/xlink">
 <defs>
 <linearGradient id="id0" gradientUnits="userSpaceOnUse" x1="37.5379" y1="50.7529" x2="81.3078" y2="6.98301">
  <stop offset="0" style="stop-color:#FFAF22"/>
  <stop offset="1" style="stop-color:#F09900"/>
 </linearGradient>
 <radialGradient id="id1" gradientUnits="userSpaceOnUse" cx="59.5" cy="28.8691" r="42.7279" fx="59.5" fy="28.8691">
  <stop offset="0" style="stop-color:#D6B849"/>
  <stop offset="0.541176" style="stop-color:#D6B849"/>
  <stop offset="0.670588" style="stop-color:#FFCE47"/>
  <stop offset="1" style="stop-color:#FFDB73"/>
  <stop offset="1" style="stop-color:#FFDB73"/>
 </radialGradient>
 </defs>
<symbol id="sun" viewBox="16.7721 -13.8588 85.4558 85.4558">
 <polygon class="fil0" points="86.2206,36.0182 102.228,28.8691 86.2206,21.6992 96.4753,7.46349 79.0506,9.29766 80.8223,-8.15825 66.6491,2.14855 59.5,-13.8588 52.3301,2.14855 38.0944,-8.10614 39.9285,9.3185 22.4726,7.54686 32.7794,21.72 16.7721,28.8691 32.7794,35.987 22.5247,50.2748 39.9494,48.4406 38.1777,65.8965 52.3509,55.5897 59.5,71.597 66.6178,55.5897 80.8535,65.8444 79.0715,48.4197 96.5274,50.181 "/>
 <path class="fil1" d="M36.8646 41.8959c4.65426,8.05403 13.255,13.0192 22.5587,13.0192 14.3865,0 26.0535,-11.667 26.0535,-26.0536 0,-14.3866 -11.667,-26.0536 -26.0535,-26.0536 -4.57074,0 -9.06516,1.20551 -13.022,3.4893 -8.06004,4.65024 -13.0316,13.2574 -13.0316,22.5643 0,4.57392 1.20869,9.07469 3.49565,13.0347l-0.000794014 -0.000347381z"/>
 <path class="fil2" d="M40.4705 39.8116c3.90992,6.76798 11.1346,10.9414 18.9524,10.9414 12.0846,0 21.885,-9.80032 21.885,-21.885 0,-12.0847 -9.80032,-21.885 -21.885,-21.885 -3.83941,0 -7.61475,1.00994 -10.9385,2.92832 -6.77314,3.90625 -10.9465,11.1362 -10.9465,18.9567 0,3.83941 1.0153,7.62006 2.93368,10.9438l-0.00104214 -0.000198504z"/>
</symbol>
<symbol id="s01d" viewBox="26.1514 -4.47948 85.4558 85.4558">
 <use x="26.1514" y="-4.47948" width="85.4558" height="85.4558" xlink:href="#sun"/>
</symbol>
 <g id="Слой_x0020_1">
  <metadata id="CorelCorpID_0Corel-Layer"/>
  <polygon class="fil3" points="68.364,6.59478 20.1254,7.81925 21.2189,-9.92518e-005 9.92518e-005,18.6492 26.4611,29.0927 22.7016,21.792 "/>
 </g>
</svg>
