<?xml version="1.0" encoding="UTF-8"?>
<!DOCTYPE svg PUBLIC "-//W3C//DTD SVG 1.1//EN" "http://www.w3.org/Graphics/SVG/1.1/DTD/svg11.dtd">
<!-- Creator: CorelDRAW -->
<?xml-stylesheet href="w270.css" type="text/css"?>
<svg xmlns="http://www.w3.org/2000/svg" xml:space="preserve" width="139.884mm" height="59.5678mm" style="shape-rendering:geometricPrecision; text-rendering:geometricPrecision; image-rendering:optimizeQuality; fill-rule:evenodd; clip-rule:evenodd"
viewBox="0 0 9739.9 4147.62"
 xmlns:xlink="http://www.w3.org/1999/xlink">
 <defs>
 <linearGradient id="id0" gradientUnits="userSpaceOnUse" x1="-4327.48" y1="8255.76" x2="1813.75" y2="2114.54">
  <stop offset="0" style="stop-color:#FFAF22"/>
  <stop offset="1" style="stop-color:#F09900"/>
 </linearGradient>
 <radialGradient id="id1" gradientUnits="userSpaceOnUse" cx="-1246.04" cy="5185.31" r="5995.02" fx="-1246.04" fy="5185.31">
  <stop offset="0" style="stop-color:#D6B849"/>
  <stop offset="0.541176" style="stop-color:#D6B849"/>
  <stop offset="0.670588" style="stop-color:#FFCE47"/>
  <stop offset="1" style="stop-color:#FFDB73"/>
  <stop offset="1" style="stop-color:#FFDB73"/>
 </radialGradient>
 </defs>
<symbol id="sun" viewBox="-7241.05 -809.703 11990 11990">
 <polygon class="fil0" points="2503.04,6188.38 4748.98,5185.31 2503.04,4179.32 3941.84,2181.96 1497.05,2439.3 1745.62,-9.88029 -242.969,1436.23 -1246.04,-809.703 -2252.03,1436.23 -4249.39,-2.56929 -3992.05,2442.23 -6441.23,2193.65 -4995.12,4182.24 -7241.05,5185.31 -4995.12,6183.99 -6433.92,8188.67 -3989.12,7931.32 -4237.7,10380.5 -2249.11,8934.39 -1246.04,11180.3 -247.355,8934.39 1750.01,10373.2 1499.97,7928.4 3949.16,8175.51 "/>
 <path class="fil1" d="M-4421.93 7013.06c653.025,1130.04 1859.77,1826.68 3165.15,1826.68 2018.53,0 3655.49,-1636.96 3655.49,-3655.5 0,-2018.54 -1636.96,-3655.5 -3655.49,-3655.5 -641.307,0 -1271.9,169.142 -1827.08,489.572 -1130.88,652.461 -1828.42,1860.11 -1828.42,3165.93 0,641.752 169.587,1273.24 490.463,1828.86l-0.111406 -0.04874z"/>
 <path class="fil2" d="M-3916.01 6720.62c548.589,949.594 1562.26,1535.15 2659.15,1535.15 1695.56,0 3070.61,-1375.05 3070.61,-3070.62 0,-1695.57 -1375.05,-3070.62 -3070.61,-3070.62 -538.695,0 -1068.4,141.701 -1534.74,410.864 -950.318,548.074 -1535.87,1562.49 -1535.87,2659.75 0,538.695 142.453,1069.15 411.616,1535.5l-0.14622 -0.0278514z"/>
</symbol>
<symbol id="s01d" viewBox="-5925.07 506.276 11990 11990">
 <use x="-5925.07" y="506.276" width="11990" height="11990" xlink:href="#sun"/>
</symbol>
 <g id="Слой_x0020_1">
  <metadata id="CorelCorpID_0Corel-Layer"/>
  <polygon class="fil3" points="-0.00696285,2087.74 6695.2,3093.83 6353.6,4147.63 9739.89,2087.74 6338.08,0 6679.67,1100.38 "/>
 </g>
</svg>
